<mxfile host="app.diagrams.net" modified="2023-08-24T02:32:04.057Z" agent="Mozilla/5.0 (Windows NT 10.0; Win64; x64) AppleWebKit/537.36 (KHTML, like Gecko) Chrome/116.0.0.0 Safari/537.36" etag="GI5tQQBTweMF_9EXVjmy" version="21.6.6" type="github">
  <diagram name="第 1 页" id="rUhT4H8--7PJWxd_EUFx">
    <mxGraphModel dx="1434" dy="758" grid="1" gridSize="10" guides="1" tooltips="1" connect="1" arrows="1" fold="1" page="1" pageScale="1" pageWidth="827" pageHeight="1169" math="0" shadow="0">
      <root>
        <mxCell id="0" />
        <mxCell id="1" parent="0" />
        <mxCell id="Dqa3F3HoXRddBD9L1llM-2" value="" style="shape=image;html=1;verticalAlign=top;verticalLabelPosition=bottom;labelBackgroundColor=#ffffff;imageAspect=0;aspect=fixed;image=https://cdn1.iconfinder.com/data/icons/birthday-58/32/Icon-11-128.png;imageBackground=#FFFFFF;" vertex="1" parent="1">
          <mxGeometry x="286" y="360" width="128" height="128" as="geometry" />
        </mxCell>
        <mxCell id="Dqa3F3HoXRddBD9L1llM-6" value="" style="shape=image;html=1;verticalAlign=top;verticalLabelPosition=bottom;labelBackgroundColor=#66666;imageAspect=0;aspect=fixed;image=https://cdn1.iconfinder.com/data/icons/birthday-58/32/Icon-11-128.png;fillColor=#FFFF66;" vertex="1" parent="1">
          <mxGeometry x="180" y="360" width="128" height="128" as="geometry" />
        </mxCell>
        <mxCell id="Dqa3F3HoXRddBD9L1llM-7" value="" style="shape=image;imageAspect=0;aspect=fixed;verticalLabelPosition=bottom;verticalAlign=top;image=data:image/png,iVBORw0KGgoAAAANSUhEUgAAAIAAAACACAYAAADDPmHLAAAAAXNSR0IArs4c6QAAAARnQU1BAACxjwv8YQUAAAAJcEhZcwAADsQAAA7EAZUrDhsAAAnNSURBVHhe7Z1paBVZFsfdNfRoq2mD477QKiIIbmQEdXBBpR3jFwX9EMQN+4OOG07j0iOtjH6QQFBp3HCQGBH3QCJi3Oig6XS0m3Zpxy24RG1Ny4wOxi253afmXOa1Oa/q1Xu3Ku/cOj/4g+adVF3q/FL1Xr1bVU2UEGlEgIgjAkQcESDiiAARRwSIOCJAxBEBIo61AhQVFalBgwap5s2bqyZNmiSV1q1bq2HDhqkjR47gUu3DSgEKCwvJhqaSPXv24NLtwjoB3r17p7KyssgmppLMzExVV1eHa7EH6wS4ffs22UATuXXrFq7FHqwT4Pr162TzTKSyshLXYg8igI+IAAwQAfwROQEmT56sFixYQAZeo35HRwRggJcAJ06cwMqGwGvU7+iIAAwQAfwhAsQgAliACOAPESAGEcACRAB/RE6AgwcPqufPn5OB16jf0REBGOAlQCoRARggAvhDBPAREYAB5eXlZPNM5Pz587gWe7BOgPz8fLJ5JrJ582Zciz1YJ8CsWbPI5pnI9OnTcS32YJ0Affr0IZtnIt27d8e12INVAjx9+lQ1bdqUbB5kwoQJatOmTa6BGup3daqrq3FtdmCVADAVnGqazuHDh7EyPl4ngxJZBiesEmD16tVk03QePnyIlfGBv3Dqd3VWrlyJlXZglQDjxo0jmwbp0aMHVnkDx3pqGZDRo0djlR1YIwDM2W/Xrh3ZNMiMGTOw0ht4t08tA5KRkaHevn2LlfyxRoArV66QDdPJy8vDSm/g8z61DJ1Lly5hJX+sEWDnzp1ks3QuXLiAld6UlZWRy9DZtm0bVvLHGgHmzZtHNgsCF3nW1tZipTdQ26pVK3JZkNzcXKzkjzUCwJXAVLMg2dnZWJU4w4cPJ5cF6devH1bxxwoBXrx44XoZ+JIlS7AycRYtWkQuCwInm2pqarCSN1YIcPr0abJROvv378fKxNm3bx+5LB23qWWcsEKAjRs3kk3SqaqqwsrE8brKeP369VjJGysEyMnJIZsE6dSpE1b5o76+3rknALVMyLRp07CSN1YI0KVLF7JJkClTpmCVfyZOnEguE9KtWzes4g17AW7evEk2SGfdunVY6R+v7xbu3buHlXxhL8CGDRvI5uiUlJRgpX+OHj1KLlPHz9nFdIW9AIMHDyabA2nRokVKH9eePHmimjVrRi4bMnLkSKzkC2sBbty4QTZGByZ3pAp8+0ctGwLnA+7fv4+VPGEtwKpVq8jG6OzYsQMrk2fLli3ksnW4TxRlKwDcDs7t3T/s/mGKWKo8fvzY9Sxj//79nY+MXGErANy9k2qIjondv2bMmDHkOnTOnj2LlfxgK8CkSZPIZujAqVxT7Nq1i1yHzsyZM7GSHywFgM/fbrtlOIPn5+tfL169eqU6dOhArgsCXx2bONw0BiwFWLNmDdkInWXLlmGlOdy+HYRwfTPIToD379+7vvmDj2Zwgahprl27Rq5Ph+scAXYCnDp1imyATpCzdkeNGkWuU6eiogIr+cBOgDlz5pAbX6egoAArzeM1R2Dp0qVYyQdWArx588b1zVj79u2Nvvn7kNevX6uOHTuS64bAoYnbLeVZCXD8+HFyw+vA3iFo4Jay1Lp1zpw5g5U8YCXAwoULyY2uU1paipXBASd9qHXrrFixAit5wEqAgQMHkhsd0rlzZ+cTQtDALr5r167kGCAjRozASh6wEeDZs2eul37Pnj0bK4Nn7ty55Bgg8B0EzFLmAhsB4LJsaoPrhPlQp71795Jj0Dl58iRWpj9sBIBjK7Wxde7cuYOVwfPgwQNyDDpr167FyvSHjQBTp04lNzYEjslh43YrGj9XIjc2bAQYMGAAubEhMHs3bGC2MTUWyJAhQ7Aq/WEhALzzhgs8qY0NWbx4MVaGx/Lly8mxQNq2bYtV6Q8LAe7evUtuaJ2tW7diZXh4XY4OE0o5wEIAr7t/FhcXY2V4eF2PyOUmEiwEgDN81EbW8XPzB1NcvnyZHIsOl9vKshDg2LFj5EbWuXr1KlaGB3zspMai0xh7pWRgIYDX17CNMTcfLjihxqJz4MABrExvWAjg9YarZ8+ezufyMNOrVy9yLDq7d+/G0ac3LATYvn07uZHTOTBmDogAAUUEMIgIEBwiQEARAQwiAgSHCBBQRACDuAkw6U8t1LPSzkp9245OOfEzH6k5/UdVkDfWmQwKyf/qL+pfxz9VO//xZ3I8OiKAQdwEqDr2B7JxxvPDIKWeFih1+VPn//UVncjx6IgABnET4Ivc1g2bFVKo8eiIAAZxEwDy35vryQY5qcj8318u/AVTryeVj51DCzUWHRHAIF4CwIzhVI/1/vMxORYdEcAgCQkQ2xzTMsTZe8z+rCU5HogIYBAvAf5z/3DDBoWwR6j9Jr4EIoBBvASoq+xLNshJZRf654YEAQmoMYkABvESgGpMmKHGJAIYRAQIDjsFCPkTATUmEcAg6bwH+PpvbcgxiQAG8RIATstSzQk68ZoPEQEM4iXAqxt/JRsUSPDwUvuT+80qRACDeAlwprRE1Xw3o2Gzfku8nyeTXypyVGVlpROvaxVEAIN4CaDz4RdD1C462S+P9m/IUG1a/X5ZbhEBDJKoAOkUEcAgIkBwiAABRQQwiAgQHCJAQBEBDBJPAJgQGtacQFgPfPUL6zz79UeucwEgIoBB4gnwuKQt2aygUvftJ+pNeU/n3+/L4z9WFiICGCSeAB82KOxQY9IRAQwiAgSHvQJ8l6XUz3iNvtEZwf8PNSYdEcAg8QSA6VhUY8IKNSYdEcAg8QRI+aIQ2DP8OKzhz2HvAdcS1NUqdffzhq9jqDHpiAAGiScABL6gaaz5ANR4dEQAg3g9uLHBlUH3vvj9/wMKNRYdE88tDgMWAhw6dIjcyDrObeJimwNv/lx23Sbyy6Vcciw6MGYOsBDg3Llz5EbWgfv2Osft2CbFO76byG/LLsz/jByLzsWLF3H06Q0LAV6+fOk8npXa0BB4jOz3xbl0swJKvAtCIHBjay5PDWEhADB27FhyY8dm+98HkM1KNP8+310V/3OWOleYQ74eG7cJofBgay6wEcDrkTGxgU8Ge77MIBuXbKj1xAuX4z/ARoD6+no1dOhQcoMnE7/nEKhlUMnOznbGygU2AgDwAGd4GAO14VONmxBuu/vYwNga48bVqcBKAADuHO72hrCx0rJlS1VUVISj5AM7AYCysjKVlZVFNqIxkpmZ6TxAgiMsBQCqq6vV/PnznQc1Uk0JI7BuuHXco0ePcFT8YCuApqqqSuXl5anx48er3r17qzZtEjteJxNYdt++fZ11wTph3dxhL4CQGiJAxBEBIo4IEHFEgIgjAkQcESDiiACRRqlfAV3glF184xQwAAAAAElFTkSuQmCC;" vertex="1" parent="1">
          <mxGeometry x="180" y="360" width="128" height="128" as="geometry" />
        </mxCell>
        <mxCell id="Dqa3F3HoXRddBD9L1llM-8" value="" style="shape=image;html=1;verticalAlign=top;verticalLabelPosition=bottom;labelBackgroundColor=#ffffff;imageAspect=0;aspect=fixed;image=https://cdn1.iconfinder.com/data/icons/science-technology-outline-24-px/24/Cone_filter_filtering_funnel_pipe-128.png;imageBorder=#000000;strokeWidth=0;" vertex="1" parent="1">
          <mxGeometry x="310" y="240" width="80" height="80" as="geometry" />
        </mxCell>
        <mxCell id="Dqa3F3HoXRddBD9L1llM-9" value="" style="shape=image;html=1;verticalAlign=top;verticalLabelPosition=bottom;labelBackgroundColor=#ffffff;imageAspect=0;aspect=fixed;image=https://cdn1.iconfinder.com/data/icons/birthday-58/32/Icon-11-128.png;imageBackground=#FFFFFF;" vertex="1" parent="1">
          <mxGeometry x="390" y="360" width="128" height="128" as="geometry" />
        </mxCell>
        <mxCell id="Dqa3F3HoXRddBD9L1llM-10" value="" style="shape=image;html=1;verticalAlign=top;verticalLabelPosition=bottom;labelBackgroundColor=#ffffff;imageAspect=0;aspect=fixed;image=https://cdn1.iconfinder.com/data/icons/birthday-58/32/Icon-11-128.png;imageBackground=#FFFFFF;" vertex="1" parent="1">
          <mxGeometry x="500" y="360" width="128" height="128" as="geometry" />
        </mxCell>
        <mxCell id="Dqa3F3HoXRddBD9L1llM-11" value="" style="shape=flexArrow;endArrow=classic;html=1;rounded=0;" edge="1" parent="1">
          <mxGeometry width="50" height="50" relative="1" as="geometry">
            <mxPoint x="516" y="530" as="sourcePoint" />
            <mxPoint x="286" y="530" as="targetPoint" />
          </mxGeometry>
        </mxCell>
        <mxCell id="Dqa3F3HoXRddBD9L1llM-12" value="" style="shape=image;html=1;verticalAlign=top;verticalLabelPosition=bottom;labelBackgroundColor=#ffffff;imageAspect=0;aspect=fixed;image=https://cdn1.iconfinder.com/data/icons/ionicons-outline-vol-2/512/water-outline-128.png;imageBackground=#FFFF00;" vertex="1" parent="1">
          <mxGeometry x="340" y="330" width="20" height="20" as="geometry" />
        </mxCell>
      </root>
    </mxGraphModel>
  </diagram>
</mxfile>
